<svg xmlns="http://www.w3.org/2000/svg" fill="none" viewBox="0 0 359 388"><g clip-path="url(#a)"><path fill="#000" d="M310.64 232.53c.37-.18-.06-.31-1.1-.31-.98 0-1.35.12-.74.31.03.01.07.02.11.02.55.1 1.33.09 1.73-.02"/><path fill="#000" d="M267.87 175.32c.24-.37.31-.73.06-.73-.18 0-.61.73-.92 1.59-.37.86-.55 3.12-.55 5.02l.12 3.49.37-4.28c.24-2.4.61-4.67.92-5.09"/><path fill="#000" d="M316.57 195.08c.43.86.49.49.18-1.22-.43-2.81-.8-3.61-.73-1.47 0 .79.25 2.02.55 2.69"/><path fill="#000" d="M304.76 199.12c0-2.88-.24-3.18-.8-1.04-.18.86-.12 1.96.25 2.57.43.79.55.43.55-1.53"/><path fill="#000" d="M190.58 229.93c-4.4 6.88-9.72 15.67-11.75 19.54-4.07 7.47-4.4 9.11-5.38 22.81l-.46 6.23 2.95 7.21c1.19 2.85 2.92 6.99 4.42 10.56 2.02-1.81 3.41-2.99 3.56-2.99.24 0 .49 5.14.49 11.44v1.35c4.96 12.65 11.07 30.92 11.96 36.21.33 1.77.07 2.49-1.25 3.67-1.51 1.44-1.58 1.51-.53 4.39 1.97 5.64 4.14 17.63 4.86 26.88.23 2.88.35 6.3.37 10.42h71.68c-.53-2.53-.95-5.1-1.37-8.22-1.77-13.89-2.02-17.44-1.28-22.7 1.1-7.95 6.18-19.46 10.28-23.44 3.79-3.67 8.75-7.16 9.24-6.61.31.31 1.22 2.51 2.08 4.96.86 2.39 3 7.16 4.71 10.52 1.96 3.92 3.73 8.81 4.83 13.09 2.2 8.38 2.69 9.79 4.96 13.34 1.77 2.69 7.71 8.02 12.18 10.77 4.04 2.57 8.5 1.59 13.09-2.81 3.98-3.73 10.22-18.42 10.22-24.05 0-1.16-.43-3.49-.92-5.14-1.77-5.81-4.59-31.33-4.59-41.36 0-3.3-.12-3.61-3.18-6.92-2.63-2.94-3.24-3.98-3.61-6.67-.67-4.71-.61-11.81.12-18.78.49-4.59.49-6.61 0-7.77-.43-.8-.86-1.34-1.1-1.16-.18.24 0 .8.37 1.29.61.73.61 2.2 0 6.85-.86 6.79-.43 20.99.73 25.58.86 3.43.73 3.61-4.16 4.71-2.88.67-3.61.61-7.59-.74-5.2-1.71-6.73-3.36-6.79-7.22 0-2.39-.18-2.69-3.24-4.59-3.55-2.33-5.08-4.22-6.67-8.32-.61-1.53-1.71-3.85-2.51-5.2l-1.41-2.51 2.82.06c1.9 0 2.87.31 3.06.92.05.13.12.32.2.54.05.14.11.3.17.47l.03.09c.06.17.13.35.2.53.02.04.03.08.05.12.05.15.11.29.17.44.02.06.05.13.07.19.07.19.14.37.21.55.73 1.77.98 1.96 2.08 1.35.98-.55 1.53-.49 2.2.06s1.1.49 2.08-.37c.67-.61 1.22-1.53 1.16-2.08 0-.61-.24-.43-.61.43-.31.86-.98 1.35-1.53 1.22-1.1-.18-1.41-.61-3-4.59l-1.04-2.57 2.08-3.85 2.14-3.86 6.36.06c6.85.06 4.96-.73-2.45-1.04-4.47-.18-5.02.31-7.4 6-1.35 3.18-1.35 3.37-.31 5.32 1.1 2.08 1.1 4.1-.12 4.47-.37.12-.98-.73-1.41-1.9-.37-1.16-1.22-2.81-1.96-3.73-.98-1.22-1.16-2.08-.8-3.79.73-3.92 3.43-9.97 5.02-11.2.86-.67 1.22-1.22.86-1.22-.43 0-1.41.67-2.2 1.47-1.71 1.71-4.9 11.26-4.47 13.46.25 1.35.06 1.47-1.47 1.47-1.41-.06-1.71-.37-1.71-1.53 0-1.65.49-1.78 1.59-.37.1.13.19.25.27.35.02.02.03.04.05.06.06.07.11.14.15.19l.06.06c.03.03.06.07.09.09.02.01.03.01.04.02.02.01.04.02.05.02s.02-.01.04-.03c.01-.01.02-.01.02-.03.01-.02.02-.06.02-.09 0-.02.01-.03.01-.06.01-.05.01-.11.02-.18 0-.02 0-.04.01-.06.01-.1.01-.2.02-.33 0-.55-.67-1.35-1.47-1.77-1.28-.55-1.47-.98-1.16-2.57.73-4.28 1.65-6.98 3.61-10.89 1.96-3.85 2.26-4.16 4.1-4.16 2.26 0 20.74 7.28 21.05 8.32.12.43-.43.61-1.47.43-1.47-.18-1.41-.12.43.61 1.16.43 2.2.73 2.32.67.61-.43-1.35-2.69-3.18-3.79-2.75-1.65-3.06-3.61-2.69-18.11.1-5.19.08-8.71-.13-8.66-.03.01-.07.12-.12.34-.24 1.53-.43 7.71-.37 13.77 0 6.05-.18 10.95-.49 10.89s-2.14-.73-4.16-1.53l-3.55-1.41.37-3.67c.18-2.02 1.04-7.1 1.9-11.32 1.77-8.99 1.84-9.79.8-8.44-.43.55-1.35 1.1-2.02 1.28-1.1.24-1.1.31.18.37 1.65.06 1.59-.18.18 6.85-.61 3.18-1.35 7.53-1.59 9.73s-.55 4.16-.67 4.41c-.37.55-5.81-1.29-7.16-2.45-1.71-1.47-6.06-8.14-6.91-10.52-.67-1.84-.8-1.96-.86-.61 0 1.9-1.9 16.52-2.26 17.74-.55 1.77-1.23-.73-2.08-7.65-.55-4.65-1.16-7.04-1.9-7.77-.98-.98-.86-1.1 2.2-2.88 1.16-.64 2.77-1.83 4.2-3.06.76-.65 1.47-1.31 2.04-1.9 2.81-2.94 3.12-3.12 4.71-2.51.98.37 2.45.67 3.36.61 1.16-.06.8-.25-1.04-.61-3.24-.61-5.81-2.32-12.79-8.57-10.59-9.36-12.36-12.61-12.36-22.64 0-2.88-.18-5.45-.37-5.63-.24-.18-.92.31-1.59 1.1-1.96 2.51-3.18 1.96-6.36-2.94-2.35-3.6-3.73-5.5-3.74-5.16 0 .11.14.46.44 1.06 1.41 2.63 5.14 8.2 6.06 8.93.73.55.73.8-.25 1.28-.61.37-1.59.49-2.14.37-.16-.05-.39-.03-.67.03-.79.19-1.96.79-3 1.56-2.14 1.53-3 1.84-4.83 1.53-1.77-.24-3.06.12-6.43 1.96-5.75 3.06-8.93 3.36-35.61 3.36h-16.56c-.79 1.06-1.57 2.26-2.53 3.82-2.01 3.31-7.27 11.63-11.67 18.45m117.18 66.23c.55-1.47 1.41-1.29 1.04.18-.49 1.96 1.35 4.04 5.14 5.87 4.28 2.02 9.54 2.26 13.28.67 2.26-.98 2.33-1.16 2.02-3.3-.24-1.35-.18-2.02.18-1.65.31.31.67 2.2.73 4.22l.18 3.67-3.37 1.71c-2.81 1.47-3.92 1.71-6.49 1.47-3.43-.37-8.2-2.51-10.71-4.83-1.63-1.52-2.79-6.05-2-8.01m-16.03-20c-1.1 7.22-2.08 10.77-4.89 17.26-.17.4-.36.82-.54 1.25-.28.65-.57 1.31-.86 1.98-.43.98-.85 1.95-1.23 2.82-.04.08-.07.16-.1.24-.17.4-.34.78-.49 1.12-.06.14-.11.26-.17.39-.1.23-.2.45-.28.64-2.02 4.71-1.84 2.82.43-3.55 3.55-10.22 4.83-16.83 4.83-25.09 0-4.1.24-7.46.55-7.46.25 0 1.22 1.04 2.08 2.26l1.53 2.32zm-8.32-30.66-2.02 1.35 1.71-1.53c1.59-1.47 2.26-1.9 2.26-1.41 0 .01-.02.04-.04.07l-.03.03c-.02.02-.04.05-.08.07-.02.02-.04.03-.05.05-.03.03-.07.06-.12.1-.02.02-.04.04-.07.06-.05.04-.11.09-.17.13-.02.02-.04.03-.06.05-.24.19-.53.41-.85.66-.15.12-.31.24-.48.37m6.67 8.38 1.1-1.47.18 1.53c.12.86.06 1.65-.12 1.84-.18.18-.73.18-1.29-.06-.85-.31-.85-.49.13-1.84m2.08 4.04c3.3 2.45 4.16 4.59 3.55 8.44-.31 1.84-.43 4.16-.24 5.2.31 1.65.24 1.71-.43.67-.05-.07-.12-.17-.21-.29-.01-.01-.02-.03-.03-.04-.5-.7-1.51-2.07-2.61-3.58-.04-.05-.07-.1-.11-.14-.28-.38-.56-.76-.84-1.15-4.41-5.94-5.38-7.77-4.96-9.24.56-1.64 3.49-1.58 5.88.13m-17.62-58.8c3.24-2.08 3.73-1.59 4.16 3.92.49 6.3 2.39 11.81 8.44 24.41 4.71 9.79 4.83 10.16 3.61 10.83-.67.37-1.47.43-1.71.12-.92-.98-6.06-11.02-8.57-16.71-1.96-4.47-7.95-20.43-7.96-21.17.01-.05.93-.67 2.03-1.4m-.74 101.82c3.79-14.44 4.83-27.47 3.61-42.77-.61-7.1-.55-7.34.73-8.75 1.84-1.96 2.63-1.77 3.73 1.04.8 2.14.86 3.06.12 7.46-.49 2.81-1.16 9.48-1.53 14.87-.43 6.91-1.1 11.5-2.2 15.6-3.55 13.09-6.55 23.56-6.79 23.86-.48.56.5-4.4 2.33-11.31"/><path fill="#000" d="M312.17 220.17c1.71-.43 5.02-3.18 5.02-4.16 0-.37-.67.12-1.53 1.04-2.02 2.2-5.81 2.26-8.01.06-2.08-2.08-2.45-1.96-.86.31 1.71 2.38 3.42 3.24 5.38 2.75"/><path fill="#000" d="M309.41 212.09c-.18.37-.06.43.31.18.37-.18.8-.12 1.04.24.49.73 2.57.8 3 .06.18-.31-.61-.67-1.84-.8-1.16-.11-2.32.02-2.51.32"/><path fill="#000" d="M328.93 207.93c0 .98.12 1.35.31.73.12-.55.12-1.41 0-1.84-.18-.36-.31.07-.31 1.11"/><path fill="#000" d="M270.87 173.36c1.96 0 4.53 2.88 5.81 6.49 1.35 3.73 2.75 3.98 3.18.55.31-2.32.43-2.45 2.14-2.26 2.69.31 3.18.98 3.61 5.14.24 2.08.73 4.28 1.04 4.9.86 1.65 5.45 4.04 8.57 4.47 6 .86 9.79-1.65 13.34-8.75 1.53-3.06 2.2-3.79 3.37-3.79 2.08 0 2.81 1.29 3.24 5.2.18 1.9.55 3.18.8 2.81.25-.43.92-.06 1.9.92 3.06 3.37 8.08 4.65 12.73 3.3 1.16-.31 2.2-.49 2.33-.37.49.49-1.65 4.71-3.98 7.83-1.35 1.77-3 4.34-3.67 5.69-1.47 2.87-3.43 9.42-3 9.85.18.18.92-1.77 1.71-4.34.73-2.57 2.2-6 3.24-7.53l1.9-2.88.31 2.45.37 2.45.3-2.88c.31-2.26.86-3.3 2.63-4.96 1.22-1.16 2.2-2.39 2.2-2.75 0-.37.18-1.16.37-1.77.18-.61-.25-.06-.98 1.22-.73 1.35-1.41 2.26-1.53 2.14-.43-.43 1.1-5.69 1.9-6.61.73-.73.86-.67.92.61.06.86.61-1.04 1.22-4.22.67-3.18 1.59-6.24 2.08-6.79 2.02-2.2.86-4.28-2.45-4.28-.73 0-1.53-.43-1.77-.92-.18-.49.25-4.53.92-8.99.73-4.47 1.41-10.52 1.59-13.4.31-4.96.25-5.39-1.35-7.95-2.26-3.61-4.34-5.81-6.43-6.67-1.1-.43-2.02-1.53-2.63-3.12-.8-1.96-1.53-2.69-4.22-3.92-4.47-2.02-14.32-3.98-20.01-3.98-3.67.06-5.26.37-7.53 1.53-1.53.86-5.69 2.33-9.18 3.31-4.96 1.47-6.61 2.2-7.65 3.55-3.79 4.77-7.59 10.34-7.95 11.69-.18.86.24 6.92.92 13.46.73 6.6 1.16 12.17.98 12.42-.12.31-.67.37-1.1.18-.49-.18-1.04-.06-1.28.31-.26.41.17.66 1.09.66m16.64.61c.18-.31 1.9-.61 3.79-.61 1.9 0 3.3.12 3.18.24-.67.55-7.33.98-6.97.37m15.17 3.33-.03.12c0 .01 0 .01-.01.02-.02.05-.04.11-.07.18l-.03.06c-.03.06-.06.12-.09.19-.01.02-.02.03-.03.05-.04.09-.1.18-.16.28-.02.03-.04.06-.06.1-.05.09-.11.18-.17.28-.02.03-.03.06-.05.09-.08.13-.16.26-.25.41-.03.04-.05.09-.08.13-.08.13-.16.26-.25.4-.03.04-.05.08-.08.13-.12.18-.24.37-.37.58-.03.04-.06.09-.08.13-.12.18-.25.38-.38.58-.03.05-.06.09-.09.14q-.24.36-.51.78c-.03.05-.07.1-.1.15-.15.23-.31.47-.47.72-.06.1-.13.19-.19.29-.19.29-.39.6-.61.92-.13.2-.28.42-.42.63-.18.27-.37.55-.56.84-.24.36-.48.73-.74 1.13-3.12 4.77-4.16 5.26-6.55 3.37l-1.35-1.1 3.49-5.14c3.91-5.75 5.26-7.46 5.63-7.1.18.12-.43 1.59-1.28 3.24-.86 1.59-2.14 3.92-2.88 5.08-1.59 2.63-.37 1.28 3.85-4.16 1.84-2.39 3.37-3.79 4.16-3.79.09 0 .17 0 .25-.01.08 0 .15-.01.21-.01h.02c.06 0 .11 0 .16.01h.02c.04.01.08.03.1.05h.01v.01c.02.02.03.04.03.07v.1c.02.02.02.04.01.05m29.86.65c-.92.98-7.4 12.48-7.4 13.16 0 .31-.31.61-.61.61-.55 0-4.16-1.65-4.77-2.14-.24-.18 6.42-10.52 7.77-12.12 1.77-2.14 1.35 0-.86 3.86-1.16 2.08-2.08 3.91-1.96 4.04.06.12 1.53-1.83 3.18-4.34 1.84-2.75 3.49-4.59 4.16-4.59 1.17-.01 1.35.66.49 1.52m-47.48-10.53c1.84-1.96 1.84-2.02 1.47-7.34-.24-3.18-.12-5.69.25-6.18s2.63-.73 7.1-.73c5.2 0 7.96.37 13.83 1.84 4.04.98 7.71 1.84 8.26 1.84.49 0 3.55-1.1 6.73-2.39 7.1-2.94 7.83-3 8.63-.86.55 1.53 1.9 17.99 1.53 18.42-.12.06-.98-.31-1.96-.8-1.65-.8-2.26-.73-7.46.98-3.12.98-6 1.65-6.3 1.41-.43-.24-.55.18-.43 1.04.24 2.02-2.75 2.82-6.49 1.71-1.65-.49-2.51-.98-2.08-1.23.43-.24.92-.37 1.1-.24.24.12.43-.12.43-.55 0-.49-.37-.73-.86-.55-.43.18-.8 0-.8-.37s-.55-.67-1.28-.67c-.74 0-4.16-.73-7.65-1.65l-6.36-1.71-2.82 1.53c-1.53.86-3.18 2.02-3.73 2.57-.55.67-1.84 1.1-3.06 1.1-3.25-.01-2.58-2.33 1.95-7.17"/><path fill="#000" d="M328.26 210.93c-.06 1.41-5.14 10.22-6.67 11.5-.55.55-1.77 1.1-2.69 1.35-1.65.37-3.55 3-3.55 4.77.06.43.43-.06.86-1.04 1.71-3.92 4.41-4.34 4.83-.8l.24 2.02.06-2.32c.06-1.53.92-3.43 2.51-5.81 3.24-4.77 5.08-8.57 4.77-9.79-.24-.86-.3-.86-.36.12"/><path fill="#000" d="M310.76 202.73c.49.43 1.22.61 1.65.43.55-.24.49-.37-.18-.37-.55-.06-1.35-.49-1.77-.98-.43-.49-1.47-.92-2.39-.86l-1.59.06 1.71.49c.98.31 2.14.86 2.57 1.23"/><path fill="#000" d="M319.02 199.18c0-.73-.12-1.35-.31-1.35-.18 0-.31.55-.31 1.22 0 .8-.43 1.22-1.22 1.22-.67 0-1.22.43-1.23.92 0 .55-.61 1.22-1.35 1.53-.8.31-1.1.55-.67.55 1.54.13 5.03-2.68 5.09-4.09"/><path fill="#000" d="M315.96 271.26c-.86 0-2.14-.37-2.81-.86-1.16-.86-1.35-.73-2.2 1.29-.67 1.47-.86 2.57-.49 3.49.49 1.16.55 1.16.55-.43.06-.98.37-2.26.67-2.94.61-1.1.73-1.1 2.14-.18.86.55 1.53 1.35 1.53 1.84 0 .43.24.92.55 1.1.31.24.43-.18.24-.92-.24-.73 0-1.53.49-1.84.62-.37.43-.55-.67-.55"/><path fill="#000" d="M312.29 293.47c0 .11.8.87 1.81 1.82.07.06.14.13.21.2l1.96 1.77-1.77-2.02c-1.72-1.83-2.21-2.26-2.21-1.77"/><path fill="#000" d="M287.05 199.51c3.64 3.52 3.71 3.59 4.43 8.36.8 5.26 1.71 8.44 1.77 6.24.12-2.26-1.35-9.24-2.26-11.08-.49-1.04-2.39-3.49-4.28-5.45-1.84-2.02-3.85-4.77-4.41-6.12-.92-1.96-1.16-2.2-1.16-1.1-.06 2.26 1.71 5.08 5.75 8.99z"/><path fill="#000" d="M311.25 287.48c0 1.65.12 2.33.24 1.35.12-.92.12-2.26 0-3.06-.12-.74-.24-.01-.24 1.71"/><path fill="#000" d="M311.74 283.25c0 .67.18.86.37.37.18-.43.12-.98-.06-1.16-.19-.25-.37.12-.31.79"/><path fill="#000" d="M308.8 257.8c-.43 0-.8.12-.8.24 0 .37 10.59 2.82 11.69 2.75.92-.05-9.66-2.93-10.89-2.99"/><path fill="#000" d="M268.78 180.4c.61-4.96 2.02-5.93 4.22-2.94l1.22 1.65-1.77 1.65c-1.53 1.41-1.78 2.08-1.71 4.65l.12 2.94.37-2.81c.43-3 1.53-4.83 2.88-4.83 1.22 0 1.71 2.39.67 3.55-.49.55-1.04 2.08-1.23 3.31-.31 1.9-.12 2.45.92 3.18 1.84 1.28 2.45.61 1.22-1.41-.86-1.53-.86-2.08-.18-4.22.49-1.35.67-3.12.49-3.92-.43-1.53-4.47-6.61-5.32-6.61-.31 0-.98.61-1.47 1.35-.61.86-.92 2.51-.92 4.47l.12 3.06z"/><path fill="#000" d="M311.68 206.09c-1.41-.31-1.96-.06-3.24 1.65-.86 1.1-1.47 2.14-1.29 2.33.18.12.55-.12.86-.61 1.59-2.69 2.2-3.24 3.43-2.57.67.37 1.59.43 2.14.12 1.1-.61 1.77-.24 3.18 1.84.55.8 1.04 1.16 1.04.73 0-.92-2.51-4.41-3.12-4.41-.24 0-.67.31-.86.67-.24.38-1.16.44-2.14.25"/><path fill="#fff" d="M320.49 309.01c2.57.24 3.67 0 6.49-1.47l3.37-1.71-.18-3.67c-.06-2.02-.43-3.92-.73-4.22-.37-.37-.43.31-.18 1.65.31 2.14.24 2.33-2.02 3.3-3.73 1.59-8.99 1.35-13.28-.67-3.79-1.84-5.63-3.92-5.14-5.87.37-1.47-.49-1.65-1.04-.18-.8 1.96.37 6.49 2.02 8.02 2.49 2.32 7.26 4.46 10.69 4.82"/><path fill="#fff" d="M323.92 261.65c-1.84-.73-1.9-.79-.43-.61 1.04.18 1.59 0 1.47-.43-.31-1.04-18.79-8.32-21.05-8.32-1.84 0-2.14.31-4.1 4.16-1.96 3.92-2.88 6.61-3.61 10.89-.31 1.59-.12 2.02 1.16 2.57.8.43 1.47 1.22 1.47 1.77-.01.13-.01.24-.02.33 0 .02 0 .04-.01.06-.01.07-.01.13-.02.18 0 .02-.01.04-.01.06-.01.03-.01.07-.02.09-.01.01-.02.02-.02.03-.01.01-.01.03-.03.03h-.01c-.02 0-.04-.01-.05-.02s-.03-.01-.04-.02c-.02-.02-.06-.05-.09-.09l-.06-.06c-.04-.05-.1-.12-.15-.19a.3.3 0 0 1-.05-.06c-.08-.1-.17-.22-.27-.35-1.1-1.41-1.59-1.28-1.59.37 0 1.16.31 1.47 1.71 1.53 1.53 0 1.71-.12 1.47-1.47-.43-2.2 2.76-11.75 4.47-13.46.8-.8 1.77-1.47 2.2-1.47.37 0 0 .55-.86 1.22-1.59 1.23-4.28 7.28-5.02 11.2-.37 1.71-.18 2.57.8 3.79.73.92 1.59 2.57 1.96 3.73.43 1.16 1.04 2.02 1.41 1.9 1.22-.37 1.22-2.39.12-4.47-1.04-1.96-1.04-2.14.31-5.32 2.39-5.69 2.94-6.18 7.4-6 7.4.31 9.3 1.1 2.45 1.04l-6.36-.06-2.14 3.86-2.08 3.85 1.04 2.57c1.59 3.98 1.9 4.41 3 4.59.55.12 1.23-.37 1.53-1.22.37-.86.61-1.04.61-.43.06.55-.49 1.47-1.16 2.08-.98.86-1.41.92-2.08.37s-1.22-.61-2.2-.06c-1.1.61-1.35.43-2.08-1.35-.07-.18-.14-.36-.21-.55-.02-.06-.05-.13-.07-.19-.06-.15-.11-.3-.17-.44-.02-.04-.03-.08-.05-.12-.07-.18-.13-.36-.2-.53l-.03-.09c-.16-.43-.3-.8-.37-1.01-.18-.61-1.16-.92-3.06-.92l-2.82-.06 1.41 2.51c.8 1.35 1.9 3.67 2.51 5.2 1.59 4.1 3.12 6 6.67 8.32 3.06 1.9 3.24 2.2 3.24 4.59.06 3.85 1.59 5.51 6.79 7.22 3.98 1.35 4.71 1.41 7.59.74 4.89-1.1 5.02-1.29 4.16-4.71-1.16-4.59-1.59-18.78-.73-25.58.61-4.65.61-6.12 0-6.85-.37-.49-.55-1.04-.37-1.29l-.92-2.39c-.14.08-1.18-.23-2.34-.66m-12.42 27.17c-.12.98-.24.31-.24-1.35 0-1.71.12-2.45.24-1.71.12.8.12 2.14 0 3.06m.61-5.2c-.18.49-.37.31-.37-.37-.06-.67.12-1.04.31-.8.18.19.24.74.06 1.17m2.2 11.87c-.07-.07-.14-.13-.21-.2-1.01-.95-1.81-1.71-1.81-1.82 0-.49.49-.06 2.2 1.78l1.77 2.02zm2.33-23.68c-.49.31-.74 1.1-.49 1.84.18.73.06 1.16-.24.92-.31-.18-.55-.67-.55-1.1 0-.49-.67-1.29-1.53-1.84-1.41-.92-1.53-.92-2.14.18-.31.67-.61 1.96-.67 2.94 0 1.59-.06 1.59-.55.43-.37-.92-.18-2.02.49-3.49.86-2.02 1.04-2.14 2.2-1.29.67.49 1.96.86 2.81.86 1.09 0 1.28.18.67.55m3.05-11.01c-1.1.06-11.69-2.39-11.69-2.75 0-.12.37-.24.8-.24 1.23.05 11.81 2.93 10.89 2.99"/><path fill="#fff" d="M298.59 272.42c-.02-.02-.06-.05-.09-.09.03.04.06.08.09.09"/><path fill="#fff" d="M298.74 272.41c-.01.01-.02.02-.02.03.01-.01.02-.02.02-.03"/><path fill="#fff" d="M298.68 272.46c-.02 0-.04-.01-.05-.02.02.02.04.03.05.02"/><path fill="#fff" d="M297.97 271.69c.1.13.19.25.27.35-.08-.1-.16-.22-.27-.35"/><path fill="#fff" d="M298.77 272.32c0-.02.01-.03.01-.06 0 .02-.01.04-.01.06"/><path fill="#fff" d="M298.8 272.08c0-.02 0-.04.01-.06 0 .02-.01.04-.01.06"/><path fill="#fff" d="M301.97 276.09c-.08-.23-.15-.41-.2-.54.08.21.21.58.37 1.01-.06-.17-.12-.33-.17-.47"/><path fill="#fff" d="M302.18 276.65c.06.17.13.35.2.53-.08-.18-.14-.36-.2-.53"/><path fill="#fff" d="M298.29 272.1c.06.07.11.14.15.19a2 2 0 0 0-.15-.19"/><path fill="#fff" d="M286.29 257.8c-.43 1.47.55 3.3 4.96 9.24.28.38.56.77.84 1.15.04.05.07.1.11.14.27.37.54.73.79 1.08.78 1.07 1.44 1.97 1.82 2.5.01.01.02.03.03.04.08.12.16.22.21.29.67 1.04.73.98.43-.67-.18-1.04-.06-3.37.24-5.2.61-3.85-.24-6-3.55-8.44-2.4-1.72-5.33-1.78-5.88-.13"/><path fill="#fff" d="M292.19 268.33c-.04-.05-.07-.1-.11-.14z"/><path fill="#fff" d="M316.21 227.51c-.43.98-.79 1.47-.86 1.04l-.74 1.84c1.04-1.35.98-.55-.8 8.44-.86 4.22-1.71 9.3-1.9 11.32l-.37 3.67 3.55 1.41c2.02.8 3.86 1.47 4.16 1.53.31.05.49-4.84.49-10.89-.06-6.06.12-12.24.37-13.77.04-.22.08-.33.12-.34l1.05-3.03-.24-2.02c-.43-3.54-3.12-3.12-4.83.8"/><path fill="#fff" d="M271.54 192.76c3.18 4.89 4.41 5.45 6.36 2.94.67-.8 1.35-1.29 1.59-1.1.18.18.37 2.75.37 5.63 0 10.03 1.77 13.28 12.36 22.64 6.98 6.24 9.55 7.95 12.79 8.57 1.84.37 2.2.55 1.04.61l2.86.51c-.04-.01-.07-.01-.11-.02-.61-.18-.24-.31.74-.31 1.04 0 1.47.12 1.1.31l2.14-.49c-1.28-.06-1.28-.12-.18-.37.67-.18 1.59-.73 2.02-1.28l.74-1.84c0-1.77 1.9-4.41 3.55-4.77.92-.24 2.14-.8 2.69-1.35 1.53-1.29 6.61-10.1 6.67-11.5.06-.98.12-.98.37-.12l.61-2.14c-.18.61-.31.24-.31-.73 0-1.04.12-1.47.31-1.1l.55-1.35-.37-2.45-.31-2.45-1.9 2.88c-1.04 1.53-2.51 4.96-3.24 7.53-.8 2.57-1.53 4.53-1.71 4.34-.43-.43 1.53-6.98 3-9.85.67-1.35 2.32-3.92 3.67-5.69 2.33-3.12 4.47-7.34 3.98-7.83-.12-.12-1.16.06-2.33.37-4.65 1.35-9.67.06-12.73-3.3-.98-.98-1.65-1.35-1.9-.92-.24.37-.61-.92-.8-2.81-.43-3.92-1.16-5.2-3.24-5.2-1.16 0-1.84.74-3.37 3.79-3.55 7.1-7.34 9.61-13.34 8.75-3.12-.43-7.71-2.81-8.57-4.47-.31-.61-.8-2.82-1.04-4.9-.43-4.16-.92-4.83-3.61-5.14-1.71-.18-1.84-.06-2.14 2.26-.43 3.43-1.84 3.18-3.18-.55-1.28-3.61-3.85-6.49-5.81-6.49-.92 0-1.35-.24-1.1-.67l-1.84 1.9c.24 0 .18.37-.06.73-.31.43-.67 2.69-.92 5.08l-.37 4.28 1.21 2.92c.03-.35 1.4 1.54 3.76 5.15m45.22 1.1c.31 1.71.24 2.08-.18 1.22-.31-.67-.55-1.9-.55-2.69-.07-2.14.3-1.35.73 1.47m-2.14 8.87c.73-.31 1.35-.98 1.35-1.53 0-.49.55-.92 1.23-.92.79 0 1.22-.43 1.22-1.22 0-.67.12-1.22.31-1.22.18 0 .31.61.31 1.35-.06 1.41-3.55 4.22-5.08 4.1-.45-.01-.14-.26.66-.56m-.8 3.12c.18-.37.61-.67.86-.67.61 0 3.12 3.49 3.12 4.41 0 .43-.49.06-1.04-.73-1.41-2.08-2.08-2.45-3.18-1.84-.55.31-1.47.24-2.14-.12-1.22-.67-1.84-.12-3.43 2.57-.31.49-.67.73-.86.61-.18-.18.43-1.22 1.29-2.33 1.28-1.71 1.84-1.96 3.24-1.65.98.18 1.9.12 2.14-.25m-.06 6.73c-.43.73-2.51.67-3-.06-.24-.37-.67-.43-1.04-.24-.37.24-.49.18-.31-.18.18-.31 1.35-.43 2.51-.31 1.23.12 2.02.49 1.84.79m-5.69-11.62c.92-.06 1.96.37 2.39.86s1.22.92 1.77.98c.67 0 .73.12.18.37-.43.18-1.16 0-1.65-.43-.43-.37-1.59-.92-2.57-1.22l-1.71-.49zm-.43 16.15c2.2 2.2 6 2.14 8.01-.06.86-.92 1.53-1.41 1.53-1.04 0 .98-3.3 3.73-5.02 4.16-1.96.49-3.67-.37-5.39-2.75-1.58-2.27-1.21-2.39.87-.31m-3.67-19.03c.55-2.14.8-1.84.8 1.04 0 1.96-.12 2.32-.55 1.53-.37-.61-.43-1.71-.25-2.57m-21.66-6.61c.55 1.35 2.57 4.1 4.41 6.12 1.9 1.96 3.79 4.41 4.28 5.45.92 1.84 2.39 8.81 2.26 11.08-.06 2.2-.98-.98-1.77-6.24-.72-4.77-.79-4.83-4.43-8.36-.05-.05-.1-.1-.16-.15-4.04-3.92-5.81-6.73-5.75-8.99 0-1.11.24-.87 1.16 1.09m-13.1-15.54c.49-.73 1.16-1.35 1.47-1.35.86 0 4.89 5.08 5.32 6.61.18.8 0 2.57-.49 3.92-.67 2.14-.67 2.69.18 4.22 1.22 2.02.61 2.69-1.22 1.41-1.04-.73-1.22-1.29-.92-3.18.18-1.22.74-2.75 1.23-3.31 1.04-1.16.55-3.55-.67-3.55-1.35 0-2.45 1.84-2.88 4.83l-.37 2.81-.12-2.94c-.06-2.57.18-3.24 1.71-4.65l1.77-1.65-1.22-1.65c-2.2-3-3.61-2.02-4.22 2.94l-.37 3.06-.12-3.06c.01-1.95.31-3.6.92-4.46"/><path fill="#fff" d="M283.1 174.58c1.22 0 2.51-.43 3.06-1.1.55-.55 2.2-1.71 3.73-2.57l2.82-1.53 6.36 1.71c3.49.92 6.91 1.65 7.65 1.65.73 0 1.28.31 1.28.67 0 .37.37.55.8.37.49-.18.86.06.86.55 0 .43-.18.67-.43.55-.18-.12-.67 0-1.1.24s.43.74 2.08 1.23c3.73 1.1 6.73.31 6.49-1.71-.12-.86 0-1.29.43-1.04.31.24 3.18-.43 6.3-1.41 5.2-1.71 5.81-1.77 7.46-.98.98.49 1.84.86 1.96.8.37-.43-.98-16.89-1.53-18.42-.8-2.14-1.53-2.08-8.63.86-3.18 1.29-6.24 2.39-6.73 2.39-.55 0-4.22-.86-8.26-1.84-5.87-1.47-8.63-1.84-13.83-1.84-4.47 0-6.73.24-7.1.73s-.49 3-.25 6.18c.37 5.32.37 5.39-1.47 7.34-4.52 4.85-5.19 7.17-1.95 7.17"/><path fill="#fff" d="M289.04 238.4c.24.31 1.04.24 1.71-.12 1.22-.67 1.1-1.04-3.61-10.83-6.06-12.6-7.95-18.11-8.44-24.41-.43-5.51-.92-6-4.16-3.92-1.1.73-2.02 1.35-2.02 1.41 0 .74 6 16.7 7.96 21.17 2.5 5.69 7.64 15.72 8.56 16.7"/><path fill="#fff" d="M271.48 312.26c.24-.31 3.24-10.77 6.79-23.86 1.1-4.1 1.78-8.69 2.2-15.6.37-5.38 1.04-12.05 1.53-14.87.73-4.4.67-5.32-.12-7.46-1.1-2.81-1.9-3-3.73-1.04-1.28 1.41-1.35 1.65-.73 8.75 1.22 15.3.18 28.33-3.61 42.77-1.84 6.9-2.82 11.86-2.33 11.31"/><path fill="#fff" d="M288.98 265.75c-.31 0-.55 3.36-.55 7.46 0 8.26-1.29 14.87-4.83 25.09-2.26 6.36-2.45 8.26-.43 3.55.08-.19.18-.41.28-.64.05-.12.11-.25.17-.39.15-.35.31-.72.49-1.12.03-.08.07-.16.1-.24.64-1.48 1.4-3.21 2.09-4.8.19-.43.37-.85.54-1.25 2.81-6.49 3.79-10.04 4.89-17.26l.86-5.81-1.53-2.32c-.86-1.23-1.84-2.26-2.08-2.27"/><path fill="#fff" d="M285.43 296.64c.29-.67.58-1.33.86-1.98-.69 1.59-1.45 3.33-2.09 4.8.38-.87.81-1.84 1.23-2.82"/><path fill="#fff" d="M284.82 244.42c.06-.05.11-.09.17-.13.02-.02.05-.04.07-.06.04-.04.08-.07.12-.1.02-.02.04-.03.05-.05.03-.03.05-.05.08-.07l.03-.03c.02-.03.04-.05.04-.07 0-.49-.67-.06-2.26 1.41l-1.71 1.53 2.02-1.35c.51-.39.99-.75 1.35-1.03 0-.02.02-.03.04-.05"/><path fill="#fff" d="M284.98 244.29c-.05.04-.11.09-.17.13.07-.05.12-.09.17-.13"/><path fill="#fff" d="M285.17 244.13c-.03.03-.07.06-.12.1.05-.03.08-.07.12-.1"/><path fill="#fff" d="M285.3 244.01c-.02.02-.04.05-.08.07.03-.02.06-.05.08-.07"/><path fill="#fff" d="M284.76 244.47c-.36.28-.84.64-1.35 1.03.17-.13.33-.25.49-.38.32-.24.62-.46.86-.65"/><path fill="#fff" d="M289.96 255.72c.55.24 1.1.24 1.29.06.18-.18.24-.98.12-1.84l-.18-1.53-1.1 1.47c-.99 1.35-.99 1.53-.13 1.84"/><path fill="#fff" d="M302.69 177.16c-.01-.03-.02-.05-.03-.07l-.01-.01a.23.23 0 0 0-.1-.05h-.02c-.04-.01-.1-.01-.16-.01h-.02c-.06 0-.14 0-.21.01-.08 0-.16.01-.25.01-.8 0-2.33 1.41-4.16 3.79-4.22 5.45-5.44 6.79-3.85 4.16.73-1.16 2.02-3.49 2.88-5.08.86-1.65 1.47-3.12 1.28-3.24-.37-.37-1.71 1.35-5.63 7.1l-3.49 5.14 1.35 1.1c2.39 1.9 3.43 1.41 6.55-3.37.26-.39.5-.77.74-1.13.19-.29.38-.57.56-.84q.21-.33.42-.63c.21-.32.41-.63.61-.92.07-.1.13-.19.19-.29.16-.25.32-.49.47-.72.03-.05.07-.1.1-.15q.27-.405.51-.78c.03-.05.06-.09.09-.14.13-.2.26-.4.38-.58.03-.04.06-.09.08-.13.13-.21.26-.4.37-.58.03-.04.05-.09.08-.13.09-.14.17-.27.25-.4.03-.04.06-.09.08-.13.09-.15.18-.28.25-.41.02-.03.03-.06.05-.09.06-.1.11-.19.17-.28.02-.03.04-.07.06-.1.06-.1.11-.2.16-.28.01-.02.02-.03.03-.05.04-.07.07-.13.09-.19l.03-.06c.03-.07.05-.13.07-.18 0-.01 0-.01.01-.02q.015-.075.03-.12v-.03c-.01-.05-.01-.08-.01-.12q0 .015 0 0"/><path fill="#fff" d="M301.41 179.61c-.03.04-.05.08-.08.13.03-.04.06-.08.08-.13"/><path fill="#fff" d="M300.96 180.32c-.03.04-.06.09-.08.13.03-.05.06-.09.08-.13"/><path fill="#fff" d="M301.75 179.08c-.03.04-.05.09-.08.13.02-.04.05-.08.08-.13"/><path fill="#fff" d="M302.27 178.21c-.02.03-.04.06-.06.1.03-.04.05-.07.06-.1"/><path fill="#fff" d="M302.45 177.87c-.01.02-.02.03-.03.05.02-.01.03-.03.03-.05"/><path fill="#fff" d="M299.33 182.82c-.06.1-.13.19-.19.29.06-.1.12-.19.19-.29"/><path fill="#fff" d="M327.89 181.01c-1.65 2.51-3.12 4.47-3.18 4.34-.12-.12.8-1.96 1.96-4.04 2.2-3.85 2.63-6 .86-3.86-1.35 1.59-8.01 11.93-7.77 12.12.61.49 4.22 2.14 4.77 2.14.31 0 .61-.31.61-.61 0-.67 6.48-12.17 7.4-13.16.86-.86.67-1.53-.49-1.53-.67.01-2.32 1.84-4.16 4.6"/><path fill="#fff" d="M294.48 173.6c.12-.12-1.29-.24-3.18-.24-1.9 0-3.61.31-3.79.61-.36.61 6.3.18 6.97-.37"/><path fill="#fff" d="M291.73 238.89c-3.06 1.77-3.18 1.9-2.2 2.88.73.73 1.34 3.12 1.9 7.77.86 6.91 1.53 9.42 2.08 7.65.37-1.23 2.26-15.85 2.26-17.74l.16-3.61c-1.43 1.22-3.04 2.41-4.2 3.05"/><path fill="#000" d="M17.81 6.85c.02.18.04.32.06.44 0 .01 0 .03.01.04.02.11.03.2.04.26 0 .01 0 .02.01.03.01.05.02.08.03.08h.01s.01-.01.01-.02 0-.01.01-.02c0-.01 0-.03.01-.05 0-.02 0-.03.01-.05 0-.02 0-.05.01-.08 0-.02 0-.05.01-.08 0-.03 0-.08.01-.12v-.22c0-.05 0-.1.01-.16v-.14c0-.06 0-.12.01-.19 0-.06 0-.12.01-.19.01-.2.01-.42.02-.67.13-2.95 1.51-5.31 2.63-4.59.46.26.85 2.49.92 5.18l.13 4.72.2-3.93c.13-2.1.13-4.52-.13-5.38-.53-2.16-2.63-1.9-3.61.39-.39 1.05-.66 2.88-.46 4.06.03.24.06.46.08.64-.04.04-.04.04-.04.05"/><path fill="#000" d="M11.89 4.16c.53 0 1.38 2.49 2.36 7.34.07.32.14.64.21.95l.06.28c.06.25.11.5.17.75.01.05.02.1.03.16.07.31.13.61.2.9l.03.14c.05.24.1.48.15.71.02.07.03.14.04.21.05.22.1.44.14.65.02.11.05.21.07.32.04.17.07.33.1.48.01.06.03.12.04.18.04.18.07.35.11.51.01.03.01.06.02.09q.09.405.15.72c.01.02.01.05.02.07.01.07.03.13.04.18.02.07.03.14.04.2 0 .02.01.04.01.06l.03.14c0 .02.01.05.01.06.01.05.02.08.02.1.02.09.04.2.05.32.01.05.02.11.02.17.01.09.02.17.04.26.03.2.05.4.08.56.33 2.16 1.31-2.23 1.25-5.7v-.06c-.06-3.48-.07-3.6-.46-1.25l-.46 2.62-.79-2.62c-.46-1.44-1.12-4.33-1.58-6.42-.85-4-2.43-5.05-3.81-2.49-.33.72-.59 2.1-.59 3.15.07 1.31.2 1.44.39.52.13-.72.39-1.97.59-2.82.17-.79.69-1.44 1.22-1.44"/><path fill="#000" d="M319.26 18.58c.72 7.93.98 9.24 2.82 11.34 2.23 2.56 3.74 5.18 4.92 8.65.53 1.44.98 2.29.98 1.9.13-1.51-1.97-6.49-3.61-8.59l-1.64-2.16 2.49-2.88c1.51-1.7 4.14-6.36 6.37-11.34 4.73-10.29 5.32-11.34 6.96-11.34 1.9 0 1.71 1.97-.92 9.57-2.82 7.93-3.48 11.67-2.3 12.39.92.59 1.9-.46 9.32-10.1 5.12-6.62 7.16-8.06 8.14-5.51.46 1.25.26 1.7-6.83 11.93-3.02 4.33-5.45 8.13-5.45 8.52 0 1.57 1.51.46 7.48-5.57 3.41-3.47 6.63-6.16 7.09-6.03 2.17.72 1.18 3.08-3.55 8.13-2.63 2.88-5.45 6.1-6.3 7.28-2.36 3.28-1.71 5.38 1.31 4.2.19-.08.35-.15.49-.21a.3.3 0 0 0 .08-.04c.1-.05.2-.09.27-.12.03-.01.04-.02.06-.04.05-.03.11-.06.14-.08.02-.01.01-.02.02-.03.02-.02.04-.03.03-.05 0-.01-.03-.02-.06-.03l-.04-.02c-.04-.01-.11-.01-.17-.02-.03 0-.05-.01-.09-.01-.08 0-.19-.01-.29-.01h-.71c-1.05-.07-1.84-.46-1.84-.92s2.82-4.06 6.3-7.93c4.99-5.7 6.17-7.47 6.04-8.85-.39-3.28-2.3-2.43-8.8 3.93-3.35 3.34-6.17 5.77-6.17 5.44s1.31-2.49 2.95-4.85c9.65-13.77 9.72-13.96 8.07-15.6-2.1-2.1-4.2-.26-12.41 10.62-2.3 3.08-4.4 5.64-4.66 5.64-1.05 0-.46-2.95 2.17-10.82 1.44-4.46 2.56-8.78 2.43-9.64-.26-1.9-2.49-2.29-3.94-.72-.59.66-1.97 3.21-3.15 5.77-4.73 10.36-6.17 13.05-8.34 15.47-1.31 1.44-2.56 2.56-2.82 2.56-.92 0-1.97-4-2.04-7.47 0-1.84-.26-3.93-.59-4.65-.28-.86-.41-.01-.21 2.29"/><path fill="#000" d="M10.77 10.84c-.2-.59-.33.07-.26 1.51 0 1.44.13 1.97.26 1.11.13-.78.13-1.96 0-2.62"/><path fill="#000" d="M9.52 17.92c.92 2.69 1.77 5.31 1.9 5.83.53 2.03.72.13.39-3.67-.2-2.29-.66-3.93-.92-3.74-.33.2-1.05-.85-1.64-2.29-1.25-3.08-3.28-3.67-3.94-1.18-.2.85-.07 2.56.33 3.8l.66 2.23-.13-2.95c-.19-4.71 1.45-3.73 3.35 1.97"/><path fill="#000" d="m317.49 13.47 1.64 1.51-1.05-1.64c-.53-.92-1.77-1.7-2.76-1.84l-1.71-.2.26 10.23.2-4.79c.26-5.18.72-5.63 3.42-3.27"/><path fill="#000" d="M22.72 23.17c.39 1.44.66 1.11 1.97-2.62.85-2.36 2.17-4.92 2.95-5.7 1.77-1.84 3.87-2.16 4.2-.72.13.79-.2 1.18-.92 1.18-.92 0-.98.2-.39.79 1.05 1.05 2.17-.46 1.97-2.43-.26-1.7-1.71-1.9-4-.46-1.58.98-2.76 2.88-4.79 7.67-.39.98-.66.07-.92-3.28l-.39-4.59-.07 4.26c-.07 2.36.13 4.98.39 5.9"/><path fill="#000" d="M4.67 29.53c2.69 2.82 3.09 3.02 4 2.16.92-.92.85-1.57-.39-6.56-1.31-5.18-1.9-6.95-1.9-5.51 0 .33.46 2.36.98 4.52.98 4 1.25 7.54.66 7.54-.2 0-1.31-1.05-2.43-2.29-2.49-2.88-4.2-3.87-4.86-2.82-.19.32-.21.45-.04.41.07-.02.17-.07.3-.14.46-.26 1.97.85 3.68 2.69"/><path fill="#000" d="M30.07 20.28c0 .56.12.81.27.64.04-.05.08-.13.13-.24.2-.46.13-1.05-.07-1.25-.2-.26-.39.13-.33.85"/><path fill="#000" d="M29.42 22.91c0 .72.2.92.39.39.2-.46.13-1.05-.07-1.25-.19-.26-.39.13-.32.86"/><path fill="#000" d="M141.76 370.39c-15.6-33.53-17.26-37.33-21.05-47.73-.92-2.57-3.61-14.69-3.61-16.28 0-3.67 4.71-10.16 19.4-26.68 8.44-9.55 13.4-14.75 29.98-31.7 8.14-8.26 9.42-9.91 10.4-12.85s1.47-3.55 4.16-5.08c2.45-1.41 3.49-2.51 5.2-5.63 1.16-2.2 4.59-6.85 7.59-10.34l5.51-6.43h5.47c2-2.68 4.12-4.48 9.81-8.89 9.06-7.08 13.66-11.34 16.74-15.47 5.97-8.13 22.26-25.04 33.28-34.61 2.43-2.16 5.71-5.7 7.16-7.87 3.55-5.24 7.88-10.88 12.28-16.06 2.04-2.36 8.86-10.62 15.23-18.36s14.25-17.18 17.46-20.98c5.51-6.42 5.84-6.95 4.99-8.33-.79-1.25-.72-1.57.39-3.02 1.44-1.77 1.71-3.74.66-3.74-3.35 0 1.84-7.74 6.76-10.29 2.03-.98 6.24-4.52 10.44-8.59 5.71-5.57 8.21-7.54 12.8-9.9 3.68-1.97 5.84-3.47 5.97-4.26.26-1.18-.85-2.36-2.17-2.36-.33.07-.13.33.53.72 2.17 1.25 1.12 2.43-4.6 5.24-4.92 2.36-6.7 3.74-12.34 9.51-4.53 4.52-7.88 7.28-10.5 8.65-2.95 1.51-4.6 2.95-6.5 5.64l-2.56 3.61-2.36-1.97c-.15-.13-.32-.27-.51-.43a11.751 11.751 0 0 1-.62-.51c-.07-.06-.15-.12-.22-.18-.2-.17-.41-.34-.63-.52-.02-.02-.04-.03-.05-.04-.24-.19-.48-.4-.73-.6-.16-.13-.33-.27-.49-.41l-.34-.28c-.09-.07-.18-.14-.26-.22-.87-.72-1.76-1.45-2.57-2.11-2.3-1.77-4.14-3.41-4.14-3.54 0-.2 1.44-2.49 3.15-5.11l3.22-4.85-.59-4.46c-.33-2.49-.46-8.13-.2-12.59.2-4.39.26-8 .07-8-.13 0-.46 2.56-.72 5.64s-.26 8.92-.07 12.91l.46 7.34-2.89 3.93c-2.1 2.95-3.15 3.87-4.2 3.74-.85-.13-1.77.39-2.36 1.18-.59.85-1.51 1.31-2.3 1.18-1.18-.2-4.07 2.88-11.95 12.85-3.94 4.98-31.25 37.04-39.32 46.15-2.04 2.23-5.91 5.83-8.67 8-5.65 4.39-10.9 9.83-14.18 14.82-1.58 2.29-3.09 3.74-4.99 4.59-1.51.72-4.79 3.28-7.35 5.7-2.49 2.49-5.97 5.83-7.68 7.54-1.71 1.64-3.22 2.88-3.35 2.69-.13-.13-.92-1.25-1.71-2.43-3.09-4.46-6.17-4.85-14.05-1.7-3.35 1.31-6.43 2.69-6.89 3.08-.59.46-1.18.26-2.1-.52-1.71-1.57-1.64-2.29.2-2.29 2.49 0 10.5-4.26 13.06-6.95 3.41-3.54 5.06-7.74 5.71-14.49.33-3.15 1.51-8.65 2.63-12.26 2.49-7.87 2.69-14.16.72-20.98-1.58-5.51-3.87-9.18-6.96-11.01-1.71-.98-2.23-1.7-2.23-3.21 0-4.92-3.74-9.18-11.09-12.59-3.94-1.84-4.92-2.03-10.96-2.1-6.5 0-6.63 0-12.47 2.95-5.65 2.82-6.11 3.21-12.28 10.82-6.37 7.87-7.29 9.57-8.99 17.24-.46 1.9-1.97 5.11-3.35 7.15-4.07 6.1-4.92 14.16-2.23 21.9 1.18 3.41 4.86 8 7.81 9.83 1.77 1.05 1.97 1.51 1.9 4.33-.07 1.84.07 2.36.26 1.25.26-1.84.53-1.57 3.22 3.34 3.68 6.69 7.55 10.42 11.62 11.01 1.64.26 3.41.26 3.87 0 .59-.39.66-.33.2.13-.79.85-14.84 4.79-17 4.79-1.31 0-1.71-.59-2.56-3.47-.53-1.84-1.05-2.95-1.05-2.36-.07.59.33 2.29.85 3.74.92 2.56.92 2.62-.66 3.02-.85.26-3.81 2.36-6.57 4.79-3.94 3.41-4.92 4-4.53 2.75.72-2.36 2.23-5.24 4-7.54.85-1.18 2.49-4.06 3.61-6.42 2.23-4.65 3.15-5.77 3.28-3.87.13 1.44 1.05-2.1 1.18-4.33.07-1.51-.07-1.44-2.82.85-1.58 1.31-3.28 2.36-3.68 2.36-.39 0-1.97-.85-3.48-1.84-9.72-6.56-12.93-7.28-17.59-3.93-1.58 1.11-3.09 2.36-3.35 2.69-.26.39-1.18 0-2.36-.98-2.36-1.97-7.75-7.93-8.6-9.57-.33-.66-2.04-1.84-3.81-2.69-2.89-1.31-3.28-1.84-4.99-5.9-1.05-2.62-3.15-6.03-4.99-8.13-4.27-4.85-12.74-16.85-15.69-22.09-1.25-2.36-6.17-10.16-10.96-17.37-4.73-7.21-10.04-15.6-11.82-18.68-6.3-11.21-8.99-15.08-10.5-15.08-.92 0-1.71-.66-2.17-1.64-.39-.92-1.31-1.64-1.9-1.64-1.97 0-3.68-3.8-4.14-9.18l-.46-4.92-.07 4.33c-.13 3.47.2 4.92 1.44 7.34l1.64 3.02-1.9.66c-1.05.33-3.68 1.84-5.84 3.28l-3.94 2.69-3.28-3.47c-2.3-2.29-3.87-4.85-5.12-7.93-.98-2.49-1.9-4.13-2.04-3.74-.53 1.51 3.87 9.44 6.76 12.32 1.64 1.57 2.95 3.15 2.95 3.41 0 .33-.66 1.38-1.44 2.36-1.38 1.77-1.38 1.9-.33 3.74.85 1.44.92 2.23.39 3.41-.85 1.84-.72 2.16 8.27 17.11 6.7 11.28 9.98 17.24 19.56 35.73 2.89 5.57 6.76 12.06 8.67 14.42 1.84 2.36 6.57 8.98 10.5 14.75 3.94 5.77 11.03 15.93 15.76 22.62s9.45 13.64 10.5 15.47l1.84 3.28-3.15 9.83c-4.2 12.98-4.46 17.83-1.97 31.47 1.58 8.33 1.77 10.82 1.44 16.98-.72 12.39-2.63 21.04-6.37 28.52-3.02 6.03-4.14 9.77-2.69 8.85 1.38-.85 1.25 1.18-.72 8.26-1.12 4.13-2.95 11.14-4.14 15.67-1.18 4.52-3.22 12.19-4.53 17.04s-2.36 9.18-2.36 9.57c0 .98 5.19 3.08 13.46 5.44l6.57 1.9-.13 19.47-7.68 22.94c-.04.11-.07.22-.11.33h71.2c-2.96-6.01-6.17-12.65-8.31-17.29M303.63 58.24c.39-.92 1.05-1.64 1.38-1.64s2.95 1.97 5.84 4.39c2.89 2.49 6.7 5.7 8.6 7.28 1.84 1.57 3.35 3.08 3.35 3.34 0 .33-.59 1.31-1.38 2.29l-1.38 1.7-6.63-5.83c-9.97-8.65-10.7-9.5-9.78-11.53m-107.01 65.23c-.33-.92-.72-4.59-.85-8.19-.2-5.31-.2-5.9.26-2.95.33 1.97.72 5.64.92 8.19.27 3.47.2 4.19-.33 2.95m-1.31-23.27c.33.33 1.12 2.23 1.71 4.2s1.05 4.65.98 5.9c0 1.7-.33.92-1.18-2.88-.66-2.88-1.38-5.83-1.71-6.56-.32-.93-.32-1.12.2-.66m-5.51.06c1.31 2.75 2.43 10.1 1.97 12.65-.66 3.02-1.77 2.62-3.87-1.51-1.84-3.67-3.61-4.59-9.13-4.59-3.74-.07-4.66.13-4.66.92s1.18 1.05 5.38 1.31c4.46.26 5.65.59 7.02 1.9.92.92 1.58 1.7 1.44 1.84-.13.2-2.63-.46-5.45-1.31-2.82-.92-6.89-1.84-9.06-2.1-6.5-.66-12.6-2.82-10.9-3.87 1.84-1.18.66-2.88-3.28-4.65-4.33-1.9-7.62-1.97-9.78 0-1.05.98-2.63 1.31-2.63.59 0-.2 1.31-2.36 2.89-4.79 4.4-6.82 8.4-9.18 15.82-9.24 3.81 0 4.99.26 6.96 1.57 1.25.85 4.73 2.23 7.62 3.08 5.65 1.51 7.1 2.69 9.66 8.2m-4.53 13.44c.98 0 .46.72-2.3 3.21-4.86 4.33-8.27 6.75-9.26 6.42-1.11-.39 9.98-9.63 11.56-9.63m-13.46 7.28c0-.92 9.39-8.65 10.44-8.65.59.07-1.12 2.1-3.87 4.59-4.54 4.19-6.57 5.43-6.57 4.06m-24.55-6.03c5.58-5.05 10.44-9.18 10.83-9.18.26 0 .66.26.85.52.13.26-2.3 2.75-5.51 5.57-3.55 3.08-5.97 4.79-6.3 4.33-.2-.39-.14-.92.13-1.24m-2.37-.59c0-1.05 9.98-9.9 10.63-9.51.39.26-1.64 2.62-4.46 5.24-5.05 4.73-6.17 5.45-6.17 4.27m8.41-11.21c-2.1-.46-3.61-1.11-3.41-1.44.59-.92 3.94-.59 6.96.72 1.58.66 3.22 1.7 3.74 2.29.79.98.72.98-1.31.13-1.26-.52-3.95-1.25-5.98-1.7m27.96-22.03c.92 1.05 1.77 2.49 1.9 3.15.53 1.9 0 1.38-1.77-1.97l-1.71-3.08zm-7.87-4.79c.72-.07 2.69 1.38 4.46 3.21 1.71 1.77 3.15 3.74 3.15 4.33 0 .72-.72.13-1.9-1.44-2.1-2.88-4.53-5.18-5.97-5.7-.73-.27-.66-.4.26-.4m-15.17 1.9c2.23-.85 5.19-.79 8.4.33 1.58.59 3.94 1.97 5.19 3.08 2.1 1.84 2.17 1.9.33.79-4.73-2.82-5.97-3.21-10.63-3.21-2.63 0-4.79-.07-4.79-.2-.01-.06.65-.46 1.5-.79m-13.66 13.25c2.36-2.36 7.81-5.38 9.78-5.38.85.07.13.52-1.71 1.25-1.71.72-4.2 2.1-5.58 3.15-3.67 2.88-4.72 3.27-2.49.98m-11.16 23.47c-.13 0 .72-1.84 1.9-4.13 1.25-2.23 2.69-5.77 3.35-7.93.59-2.1 1.18-3.67 1.38-3.47s-.26 2.36-.98 4.85c-1.18 3.92-4.73 10.68-5.65 10.68m5.32 4c-1.25-1.05-1.38-2.88-.2-2.56.39.2.92.98.98 1.84.21 1.37.14 1.44-.78.72m20.16 37.95c-4.6 0-9.13-2.36-13.2-6.88-4.73-5.38-5.58-7.41-5.91-14.62-.33-6.36-.98-7.74-3.09-6.03-.85.72-.98.26-.98-3.47 0-4.13.85-6.36 1.51-3.93.2.66.33.2.39-.98.07-2.95 1.38-2.03 1.44 1.05.07 1.7.33.85.98-2.69.46-2.82 1.18-6.16 1.64-7.54l.85-2.43.46 2.1c.2 1.18.92 2.88 1.51 3.87 2.1 3.15 8.01 4.79 12.6 3.54 2.36-.66 3.55-1.57 5.45-4 3.55-4.65 5.32-4.2 6.63 1.64.98 4.39 2.36 6.82 4.79 8.33 5.91 3.61 10.83 3.02 14.18-1.77 1.18-1.64 2.3-2.82 2.43-2.69.2.2-.2 2.49-.79 5.11-.59 2.69-1.18 5.57-1.25 6.49s-.46 2.29-.92 3.15c-.46.85-.66 2.03-.46 2.56.26.59-.07 1.57-.66 2.23-.66.72-.85 1.25-.46 1.25.79 0 2.04-2.43 2.3-4.52.26-2.1 1.64-2.49 2.04-.59.2 1.11.26 1.05.13-.33-.07-.98.13-1.77.46-1.77.26 0 .53-.33.53-.72s-.59-.52-1.44-.26c-1.44.46-1.44.39-.39-.66 1.64-1.7 3.28-.79 2.76 1.44-.92 4-3.15 8.13-5.19 9.7-2.43 1.84-3.55 2.16-2.3.66.39-.52.59-1.25.33-1.64-.92-1.44-2.43-.52-4.6 2.88-3.74 5.83-5.52 7.21-12.41 9.44-3.52 1.23-7.53 2.08-9.36 2.08m-15.37 12.46c.39 0 .72.26.72.66 0 .33-.13.66-.26.66-.2 0-.53-.33-.72-.66-.2-.4-.06-.66.26-.66m-6.63 15.86c.85-2.62 1.64-3.67 3.41-4.65 1.25-.72 2.49-1.31 2.76-1.31.26-.07-1.18 2.16-3.22 4.85s-3.81 4.85-3.94 4.72c-.06-.13.34-1.77.99-3.61M30.6 55.55c-2.89 1.18-8.99 5.64-11.69 8.52-1.58 1.64-1.64 1.64-2.49.39-.66-.92-.72-1.64-.26-2.49 1.25-2.36 6.76-6.82 10.77-8.72.35-.16.66-.31.96-.45.08-.04.16-.08.24-.11.27-.12.51-.24.74-.34.05-.02.1-.05.14-.07.25-.11.47-.21.67-.3.05-.02.09-.04.14-.06.16-.07.3-.13.43-.18.04-.02.09-.03.13-.05.16-.06.3-.11.43-.15.02-.01.03-.01.05-.01.11-.03.2-.05.29-.07.03 0 .06-.01.08-.01.09-.01.17-.01.24-.01h.02c.08.01.15.03.22.05.01 0 .02 0 .02.01.01 0 .01.01.02.01q.165.075.33.21l.03.03c.12.1.24.22.38.37 1.39 1.4.86 2.32-1.89 3.43m83.37 130.72c.33-.98 14.97-16.26 15.56-16.26.13 0-.33 1.51-1.05 3.28-.72 1.84-1.31 3.93-1.31 4.72 0 1.31.13 1.31 2.17-.66 2.36-2.29 3.09-2.16 3.09.39 0 1.11-1.77 3.34-6.24 7.8-8.21 8.13-9.91 11.21-11.88 21.5l-.53 2.62-.46-3.93c-.46-4.25 0-17.62.65-19.46M98.54 333.18c-.2-.33.52-3.34 1.64-6.69 1.05-3.28 2.56-8.52 3.35-11.6 2.82-11.41 3.48-12.13 4.2-4.46.66 5.97 3.09 15.54 5.25 20.19.92 1.97 1.71 3.93 1.71 4.26 0 1.25-15.36-.45-16.15-1.7"/><path fill="#000" d="M180.36 296.28c-1.4 1.25-3.09 2.8-4.89 4.47-4.34 4.16-9.42 8.87-11.14 10.46-3.06 2.81-3.18 3.06-2.69 4.96.43 1.41.31 2.45-.24 3.61-.8 1.47-.55 2.51 2.88 13.1 2.02 6.3 5.08 14.81 6.79 18.85 1.65 4.04 4.04 9.73 5.26 12.67 1.16 3 2.39 5.38 2.57 5.38.55 0 1.35-6.3 3.06-22.94 1.71-17.07 2.4-28.22 2.44-40.75-.87-2.23-1.71-4.29-2.48-6.07-.45-1.1-.99-2.38-1.56-3.74"/><path fill="#000" d="M193.83 214.11c-3 3.49-6.42 8.14-7.59 10.34-1.71 3.12-2.75 4.22-5.2 5.63-2.69 1.53-3.18 2.14-4.16 5.08s-2.26 4.59-10.4 12.85c-16.58 16.95-21.54 22.15-29.98 31.7-14.68 16.52-19.4 23.01-19.4 26.68 0 1.59 2.69 13.7 3.61 16.28 3.79 10.4 5.45 14.2 21.05 47.73 2.14 4.64 5.36 11.29 8.31 17.27h49.74c-.01-4.13-.13-7.54-.37-10.42-.72-9.24-2.89-21.24-4.86-26.88-1.05-2.88-.98-2.95.53-4.39 1.31-1.18 1.58-1.9 1.25-3.67-.89-5.29-7-23.56-11.96-36.21-.05 12.53-.73 23.68-2.44 40.75-1.71 16.64-2.51 22.94-3.06 22.94-.18 0-1.41-2.39-2.57-5.38-1.22-2.94-3.61-8.63-5.26-12.67-1.71-4.04-4.77-12.54-6.79-18.85-3.43-10.59-3.67-11.63-2.88-13.1.55-1.16.67-2.2.24-3.61-.49-1.9-.37-2.14 2.69-4.96 1.71-1.59 6.79-6.3 11.14-10.46 1.8-1.68 3.49-3.22 4.89-4.47-1.49-3.57-3.23-7.72-4.42-10.56l-2.95-7.21.46-6.23c.98-13.7 1.31-15.34 5.38-22.81 2.04-3.87 7.35-12.65 11.75-19.54 4.4-6.82 9.65-15.14 11.69-18.42.97-1.56 1.74-2.76 2.53-3.82h-5.47z"/><path fill="#000" d="M161.04 124.58c.13-.13-.13-.66-.72-1.11-.59-.52-.98-.52-.98-.13 0 .78 1.24 1.7 1.7 1.24"/><path fill="#000" d="M166.82 126.29c.53-.59-.92-2.16-1.97-2.16-.53 0-.92.26-.92.66 0 .78 2.3 2.02 2.89 1.5"/><path fill="#000" d="M150.6 126.09c-.13 0-.79.66-1.51 1.44l-1.25 1.51 1.51-1.25c1.39-1.18 1.78-1.7 1.25-1.7"/><path fill="#000" d="M171.81 137.5c0-1.38-3.22-4.79-6.17-6.49-3.35-1.97-8.8-2.56-12.87-1.38l-2.95.79.13 3.8c.2 4.98 1.84 8.19 5.12 10.03 3.09 1.77 6.17 1.9 8.99.46 2.63-1.38 7.75-6.1 7.75-7.21m-2.82 1.05c-.46 0-2.63-.92-4.79-2.1-3.09-1.7-4.73-2.16-8.01-2.23-4.46-.07-5.06-.33-4.53-1.9.53-1.31 5.65-1.31 10.18 0 4.59 1.37 10.1 6.23 7.15 6.23"/><path fill="#000" d="M173.65 135.01c.13-.66 0-1.44-.39-1.84-.39-.39-.46 0-.26 1.25.32 1.37.45 1.5.65.59"/><path fill="#000" d="M180.93 137.63c-.2-.2-.72.33-1.18 1.11-.85 1.38-.79 1.38.33.33.66-.66 1.05-1.31.85-1.44"/><path fill="#000" d="M28.89 26.77c0 1 .06 1.56.15 1.52.04-.02.08-.15.12-.41.13-.79.13-1.97 0-2.62-.2-.58-.34.07-.27 1.51"/><path fill="#000" d="M16.81 33.46c.46-1.25 1.38-2.82 2.1-3.47 1.58-1.38 4.14-4.85 3.61-4.85-.13 0-1.38 1.25-2.69 2.75-2.43 2.75-4.66 6.95-4.07 7.54.2.13.66-.72 1.05-1.97"/><path fill="#000" d="M4.34 34.57c-1.12-1.44-2.49-3.47-2.95-4.52-.46-1.11-.85-1.51-.92-.92 0 .98 4.99 8.46 5.65 8.46.51 0 .25-.52-1.78-3.02"/><path fill="#000" d="M28.17 31.03c0 .92.13 1.25.33.79.13-.39.13-1.18 0-1.64-.2-.39-.33-.06-.33.85"/><path fill="#000" d="M27.51 34.31c0 .08-.02.18-.04.29 0 .02-.01.05-.01.07q-.03.165-.09.33c-.01.02-.01.03-.02.05-.03.11-.07.22-.11.33-.01.02-.01.04-.02.06-.05.13-.09.25-.13.37-.02.06-.04.12-.06.17-.01.03-.02.06-.03.08a1 1 0 0 0-.04.12c-.01.02-.01.04-.02.06-.01.04-.02.07-.02.09v.02c0 .02.01.03.03.02l.02-.02c.02-.01.04-.03.06-.07.01-.02.03-.04.04-.06.03-.04.07-.09.11-.14.02-.03.04-.06.07-.1.05-.07.11-.16.17-.25.03-.04.05-.07.08-.12.1-.15.21-.31.34-.51.13-.39.13-1.18 0-1.64-.2-.39-.33-.07-.33.85"/><path fill="#000" d="M355.3 35.75c-.33 0-2.1.52-3.94 1.25-1.44.53-2.14.93-1.79.96.08.01.22-.01.42-.04 2.03-.46 6.36-2.17 5.31-2.17"/><path fill="#000" d="M15.37 37.72c.2-.46.13-1.05-.07-1.25-.2-.26-.39.13-.33.85 0 .73.2.93.4.4"/><path fill="#000" d="M6.44 38.57c.07 1.25 1.18 3.34 1.18 2.29 0-.52-.26-1.44-.59-1.97-.33-.51-.59-.71-.59-.32"/><path fill="#fff" d="M313.28 30.51c-.26 4.46-.13 10.1.2 12.59l.59 4.46-3.22 4.85c-1.71 2.62-3.15 4.92-3.15 5.11 0 .13 1.84 1.77 4.14 3.54.52.43 1.07.88 1.63 1.34.31.26.62.51.94.77.09.07.18.14.26.22l.34.28c.17.14.33.27.49.41.25.21.5.41.73.6.02.02.04.03.05.04.22.18.43.35.63.52.08.06.15.12.22.18.15.13.3.25.43.36.06.05.13.11.19.15.19.16.36.3.51.43l2.36 1.97 2.56-3.61c1.9-2.69 3.55-4.13 6.5-5.64 2.63-1.38 5.97-4.13 10.5-8.65 5.65-5.77 7.42-7.15 12.34-9.51 5.71-2.82 6.76-4 4.6-5.24l-1.84.07c1.05 0-3.28 1.7-5.32 2.16-.2.04-.33.05-.42.04l-3.26.35h.71c.11 0 .21 0 .29.01.04 0 .06.01.09.01.06 0 .13.01.17.02.02 0 .03.01.04.02.02.01.05.02.06.03 0 .01-.02.03-.04.05-.01.01-.01.02-.02.03-.03.02-.09.05-.14.08-.02.01-.04.02-.06.04-.07.04-.17.08-.27.12a.3.3 0 0 0-.08.04c-.14.06-.3.13-.49.21-3.02 1.18-3.68-.92-1.31-4.2.85-1.18 3.68-4.39 6.3-7.28 4.73-5.05 5.71-7.41 3.55-8.13-.46-.13-3.68 2.56-7.09 6.03-5.97 6.03-7.48 7.15-7.48 5.57 0-.39 2.43-4.2 5.45-8.52 7.09-10.23 7.29-10.69 6.83-11.93-.98-2.56-3.02-1.11-8.14 5.51-7.42 9.64-8.4 10.69-9.32 10.1-1.18-.72-.52-4.46 2.3-12.39 2.63-7.6 2.82-9.57.92-9.57-1.64 0-2.23 1.05-6.96 11.34-2.23 4.98-4.86 9.64-6.37 11.34l-2.49 2.88 1.64 2.16c1.64 2.1 3.74 7.08 3.61 8.59 0 .39-.46-.46-.98-1.9-1.18-3.47-2.69-6.1-4.92-8.65-1.84-2.1-2.1-3.41-2.82-11.34-.2-2.29-.07-3.15.26-2.29l-.39-1.31-1.64-1.51c-2.69-2.36-3.15-1.9-3.41 3.28l-.2 4.79-.53.98c.2 0 .13 3.61-.07 8"/><path fill="#fff" d="M347.47 38.55a.2.2 0 0 0-.06.04c.03-.01.04-.02.06-.04"/><path fill="#fff" d="M347.4 38.33c.06 0 .13.01.17.02-.04-.01-.11-.01-.17-.02"/><path fill="#fff" d="M347.61 38.37c.02.01.05.02.06.03-.01-.02-.04-.02-.06-.03"/><path fill="#fff" d="M347.63 38.44c-.01.01-.01.02-.02.03.02-.01.02-.02.02-.03"/><path fill="#fff" d="M314.67 63.38"/><path fill="#fff" d="M315.51 64.07c-.16-.13-.33-.27-.49-.41.16.14.32.28.49.41"/><path fill="#fff" d="M317.14 65.42c-.07-.06-.15-.12-.22-.18.08.06.15.12.22.18"/><path fill="#fff" d="M316.29 64.72c-.02-.02-.04-.03-.05-.04.02.01.03.02.05.04"/><path fill="#fff" d="m313.42 69.78 6.63 5.83 1.38-1.7c.79-.98 1.38-1.97 1.38-2.29 0-.26-1.51-1.77-3.35-3.34-1.9-1.57-5.71-4.79-8.6-7.28-2.89-2.43-5.51-4.39-5.84-4.39s-.98.72-1.38 1.64c-.93 2.02-.2 2.87 9.78 11.53"/><path fill="#fff" d="m32.12 51.77-.03-.03q-.165-.135-.33-.21c-.01-.01-.03-.01-.04-.02a.55.55 0 0 0-.22-.05h-.02c-.07-.01-.16 0-.24.01-.03 0-.05.01-.08.01-.09.01-.19.04-.29.07-.02 0-.03.01-.05.01-.13.04-.27.09-.43.15-.04.02-.09.03-.13.05-.13.05-.28.11-.43.18-.05.02-.09.04-.14.06-.2.09-.43.19-.67.3-.05.02-.1.04-.14.07-.23.1-.47.22-.74.34-.08.04-.16.07-.24.11-.3.14-.61.28-.96.45-4 1.9-9.52 6.36-10.77 8.72-.46.85-.39 1.57.26 2.49.85 1.25.92 1.25 2.49-.39 2.69-2.88 8.8-7.34 11.69-8.52 2.76-1.11 3.28-2.03 1.9-3.41-.15-.16-.28-.28-.39-.39"/><path fill="#fff" d="M31.15 51.48c.03 0 .06-.01.08-.01-.03.01-.06.01-.08.01"/><path fill="#fff" d="M29.68 51.99c.05-.02.09-.04.14-.06-.05.03-.09.04-.14.06"/><path fill="#fff" d="M30.25 51.76c.04-.02.09-.03.13-.05-.04.01-.09.03-.13.05"/><path fill="#fff" d="M30.8 51.56c.02-.01.03-.01.05-.01-.01.01-.03.01-.05.01"/><path fill="#fff" d="M27.88 52.81c.08-.04.16-.07.24-.11-.08.04-.16.08-.24.11"/><path fill="#fff" d="M31.74 51.52c-.01 0-.02 0-.02-.01.01.01.03.01.04.02-.01 0-.01 0-.02-.01"/><path fill="#fff" d="M9.85 46.51c1.25 3.08 2.82 5.64 5.12 7.93l3.28 3.47 3.94-2.69c2.17-1.44 4.79-2.95 5.84-3.28l1.9-.66-1.64-3.02c-1.25-2.43-1.58-3.87-1.44-7.34l.07-4.33.92-1.51c-.13.2-.24.37-.34.51-.03.04-.05.08-.08.12-.06.09-.12.18-.17.25l-.07.1c-.04.06-.08.1-.11.14a.2.2 0 0 0-.04.06.3.3 0 0 0-.06.07c-.01 0-.01.01-.02.02-.02.01-.03 0-.03-.02v-.02c0-.02.01-.05.02-.09 0-.02.01-.04.02-.06.01-.04.02-.08.04-.12a3.25 3.25 0 0 0 .09-.25c0-.01 0-.01.01-.02.04-.11.08-.23.13-.35.01-.02.01-.04.02-.06.04-.11.08-.22.11-.33.01-.02.01-.04.02-.05.04-.12.06-.23.09-.33a.2.2 0 0 0 .01-.07c.02-.11.04-.2.04-.29 0-.92.13-1.25.33-.85l.66-1.64c-.2.46-.33.13-.33-.79s.13-1.25.33-.85l.54-1.89c-.08.04-.15-.52-.15-1.52-.07-1.44.07-2.1.26-1.51l.66-1.97c-.2.52-.39.33-.39-.39-.07-.72.13-1.11.33-.85l.59-1.13c-.15.17-.27-.07-.27-.64-.07-.72.13-1.11.33-.85l.13-3.34c-.59-.59-.53-.79.39-.79.72 0 1.05-.39.92-1.18-.33-1.44-2.43-1.11-4.2.72-.79.79-2.1 3.34-2.95 5.7-1.31 3.74-1.58 4.06-1.97 2.62-.26-.92-.46-3.54-.39-5.9l.07-4.26-.66-1.97-.13-4.72c-.07-2.69-.46-4.92-.92-5.18-1.12-.72-2.49 1.64-2.63 4.59-.01.25-.01.47-.02.67 0 .06 0 .13-.01.19 0 .07 0 .12-.01.19v.14c0 .06 0 .11-.01.16v.22c0 .04 0 .08-.01.12 0 .03 0 .05-.01.08 0 .03 0 .06-.01.08 0 .02 0 .04-.01.05 0 .02 0 .03-.01.05 0 .01 0 .02-.01.02 0 .01-.01.01-.01.02-.01 0-.02-.03-.03-.08 0-.01 0-.02-.01-.03-.01-.06-.03-.15-.04-.26 0-.01 0-.03-.01-.04-.02-.12-.04-.27-.06-.44v-.02c-.02-.19-.05-.4-.08-.64l-.79 7.47c.39-2.35.39-2.23.46 1.25v.06c.07 3.47-.92 7.87-1.25 5.7-.03-.16-.05-.36-.08-.56v-.02l-.03-.25c-.01-.06-.02-.12-.02-.17-.02-.12-.04-.23-.05-.32 0-.02-.01-.05-.02-.1 0-.02-.01-.04-.01-.06-.01-.04-.02-.08-.03-.14 0-.02-.01-.04-.01-.06-.01-.06-.03-.12-.04-.2-.01-.06-.03-.12-.04-.18-.01-.02-.01-.05-.02-.07-.01-.06-.02-.11-.04-.17-.03-.16-.07-.35-.12-.55-.01-.03-.01-.06-.02-.09-.03-.16-.07-.33-.11-.51-.01-.06-.03-.12-.04-.18-.03-.15-.07-.32-.1-.48-.02-.11-.04-.21-.07-.32-.05-.21-.09-.43-.14-.65-.01-.07-.03-.14-.04-.21-.05-.23-.1-.46-.15-.71l-.03-.14c-.06-.29-.13-.59-.2-.9-.01-.05-.02-.1-.03-.16-.05-.25-.11-.5-.17-.75l-.06-.28c-.07-.31-.14-.63-.21-.95-.98-4.85-1.84-7.34-2.36-7.34s-1.05.66-1.18 1.44c-.2.85-.46 2.1-.59 2.82l.66 2.43c.13.66.13 1.84 0 2.62l.13 2.88c.26-.2.72 1.44.92 3.74.33 3.8.13 5.7-.39 3.67-.13-.52-.98-3.15-1.9-5.83-1.9-5.7-3.55-6.69-3.35-1.97l.13 2.95.07.72c0-1.44.59.33 1.9 5.51 1.25 4.98 1.31 5.64.39 6.56-.92.85-1.31.66-4-2.16-1.71-1.84-3.22-2.95-3.68-2.69-.13.08-.24.13-.3.14l-.22 2.15c.07-.59.46-.2.92.92.46 1.05 1.84 3.08 2.95 4.52 2.04 2.49 2.3 3.02 1.77 3.02l.33.98c0-.39.26-.2.59.33.33.52.59 1.44.59 1.97l.2 1.9c.11-.38 1.03 1.25 2.01 3.75m9.98-18.62c1.31-1.51 2.56-2.75 2.69-2.75.53 0-2.04 3.47-3.61 4.85-.72.66-1.64 2.23-2.1 3.47-.39 1.25-.85 2.1-1.05 1.97-.59-.59 1.64-4.79 4.07-7.54m-4.53 8.59c.2.2.26.79.07 1.25-.2.52-.39.33-.39-.39-.07-.73.12-1.13.32-.86"/><path fill="#fff" d="M18.01 7.29c0 .04 0 .08-.01.12.01-.03.01-.07.01-.12"/><path fill="#fff" d="M18 7.49c0 .03 0 .06-.01.08 0-.03.01-.06.01-.08"/><path fill="#fff" d="M17.99 7.62c0 .02 0 .03-.01.05 0-.02 0-.04.01-.05"/><path fill="#fff" d="M17.73 6.19c.03.24.06.46.08.64-.02-.19-.05-.4-.08-.64"/><path fill="#fff" d="M17.87 7.29c-.02-.12-.04-.27-.06-.44.03.17.04.32.06.44"/><path fill="#fff" d="M17.97 7.69c0 .01-.01.01-.01.02.01-.01.01-.01.01-.02"/><path fill="#fff" d="M16.03 19.85c-.01-.06-.02-.12-.02-.17.01.06.02.12.02.17"/><path fill="#fff" d="m14.95 14.68-.03-.14c.01.04.02.09.03.14"/><path fill="#fff" d="M15.88 19c-.01-.06-.03-.13-.04-.2.01.08.02.14.04.2"/><path fill="#fff" d="M15.96 19.37c0-.02-.01-.05-.02-.1 0 .04.01.08.02.1"/><path fill="#fff" d="M14.73 13.64c-.01-.05-.02-.1-.03-.16 0 .05.02.1.03.16"/><path fill="#fff" d="m14.53 12.73-.06-.28c.01.09.04.19.06.28"/><path fill="#fff" d="M15.63 17.83c-.01-.03-.01-.06-.02-.09.01.02.01.06.02.09"/><path fill="#fff" d="M16.15 20.68c-.03-.16-.05-.36-.08-.56.03.19.06.39.08.56"/><path fill="#fff" d="M15.36 16.56c-.02-.11-.04-.21-.07-.32.03.11.05.22.07.32"/><path fill="#fff" d="M27.36 35.05c.01-.02.01-.04.02-.05-.01.02-.02.03-.02.05"/><path fill="#fff" d="M27.46 34.67c.01-.02.01-.05.01-.07 0 .02 0 .04-.01.07"/><path fill="#fff" d="M27.23 35.44c.01-.02.01-.04.02-.06-.01.02-.02.04-.02.06"/><path fill="#fff" d="M26.92 36.32c0-.02.01-.05.02-.09-.01.04-.01.07-.02.09"/><path fill="#fff" d="M27.03 35.98c.02-.05.04-.11.06-.17-.02.06-.04.11-.06.17"/><path fill="#fff" d="M180.67 145.36c2.17-3.41 3.68-4.33 4.6-2.88.26.39.07 1.11-.33 1.64-1.25 1.51-.13 1.18 2.3-.66 2.03-1.57 4.27-5.7 5.19-9.7.53-2.23-1.12-3.15-2.76-1.44-1.05 1.05-1.05 1.11.39.66.85-.26 1.44-.13 1.44.26s-.26.72-.53.72c-.33 0-.53.79-.46 1.77.13 1.38.07 1.44-.13.33-.39-1.9-1.77-1.51-2.04.59-.26 2.1-1.51 4.52-2.3 4.52-.39 0-.2-.52.46-1.25.59-.66.92-1.64.66-2.23-.2-.52 0-1.7.46-2.56.46-.85.85-2.23.92-3.15s.66-3.8 1.25-6.49c.59-2.62.98-4.92.79-5.11-.13-.13-1.25 1.05-2.43 2.69-3.35 4.79-8.27 5.38-14.18 1.77-2.43-1.51-3.81-3.93-4.79-8.33-1.31-5.83-3.09-6.29-6.63-1.64-1.9 2.43-3.09 3.34-5.45 4-4.6 1.25-10.5-.39-12.6-3.54-.59-.98-1.31-2.69-1.51-3.87l-.46-2.1-.85 2.43c-.46 1.38-1.18 4.72-1.64 7.54-.66 3.54-.92 4.39-.98 2.69-.07-3.08-1.38-4-1.44-1.05-.07 1.18-.2 1.64-.39.98-.66-2.43-1.51-.2-1.51 3.93 0 3.74.13 4.2.98 3.47 2.1-1.7 2.76-.33 3.09 6.03.33 7.21 1.18 9.24 5.91 14.62 4.07 4.52 8.6 6.88 13.2 6.88 1.84 0 5.84-.85 9.39-2.1 6.87-2.21 8.64-3.58 12.38-9.42m-.92-6.62c.46-.79.98-1.31 1.18-1.11.2.13-.2.79-.85 1.44-1.12 1.05-1.18 1.05-.33-.33m-6.5-5.57c.39.39.53 1.18.39 1.84-.2.92-.33.79-.66-.59-.19-1.25-.12-1.64.27-1.25m-8.4-9.05c1.05 0 2.49 1.57 1.97 2.16-.59.52-2.89-.72-2.89-1.51 0-.38.39-.65.92-.65m-4.53-.65c.59.46.85.98.72 1.11-.46.46-1.71-.46-1.71-1.25.01-.39.4-.39.99.14m-12.47 5.57 1.25-1.51c.72-.79 1.38-1.44 1.51-1.44.53 0 .13.52-1.25 1.7zm7.22 15.21c-3.28-1.84-4.92-5.05-5.12-10.03l-.13-3.8 2.95-.79c4.07-1.18 9.52-.59 12.87 1.38 2.95 1.7 6.17 5.11 6.17 6.49 0 1.11-5.12 5.83-7.75 7.21-2.82 1.44-5.91 1.31-8.99-.46"/><path fill="#fff" d="M160.58 104.72c-.53-.59-2.17-1.64-3.74-2.29-3.02-1.31-6.37-1.64-6.96-.72-.2.33 1.31.98 3.41 1.44 2.04.46 4.73 1.18 5.97 1.7 2.05.85 2.11.85 1.32-.13"/><path fill="#fff" d="M182.25 112.32c-1.05 0-10.44 7.74-10.44 8.65 0 1.38 2.04.13 6.57-4.06 2.75-2.49 4.46-4.52 3.87-4.59"/><path fill="#fff" d="M173.71 123.34c.98.33 4.4-2.1 9.26-6.42 2.76-2.49 3.28-3.21 2.3-3.21-1.58-.01-12.67 9.23-11.56 9.63"/><path fill="#fff" d="M153.43 111.87c3.22-2.82 5.65-5.31 5.51-5.57-.2-.26-.59-.52-.85-.52-.39 0-5.25 4.13-10.83 9.18-.26.33-.33.85-.13 1.25.32.44 2.75-1.26 6.3-4.34"/><path fill="#fff" d="M155.53 104.85c-.66-.39-10.63 8.46-10.63 9.51 0 1.18 1.12.46 6.17-4.26 2.82-2.63 4.85-4.99 4.46-5.25"/><path fill="#fff" d="M140.03 99.41c-.2-.2-.79 1.38-1.38 3.47-.66 2.16-2.1 5.7-3.35 7.93-1.18 2.29-2.04 4.13-1.9 4.13.92 0 4.46-6.75 5.65-10.69.72-2.48 1.18-4.64.98-4.84"/><path fill="#fff" d="M147.06 90.49c1.38-1.05 3.87-2.43 5.58-3.15 1.84-.72 2.56-1.18 1.71-1.25-1.97 0-7.42 3.02-9.78 5.38-2.24 2.3-1.19 1.91 2.49-.98"/><path fill="#fff" d="M172.14 82.43c1.84 1.11 1.77 1.05-.33-.79-1.25-1.11-3.61-2.49-5.19-3.08-3.22-1.11-6.17-1.18-8.4-.33-.85.33-1.51.72-1.51.79 0 .13 2.17.2 4.79.2 4.66 0 5.91.39 10.64 3.21"/><path fill="#fff" d="M173.12 76.73c1.44.52 3.87 2.82 5.97 5.7 1.18 1.57 1.9 2.16 1.9 1.44 0-.59-1.44-2.56-3.15-4.33-1.77-1.84-3.74-3.28-4.46-3.21-.91 0-.98.13-.26.4"/><path fill="#fff" d="M183.17 84.27c-.13-.66-.98-2.1-1.9-3.15l-1.58-1.9 1.71 3.08c1.77 3.34 2.29 3.87 1.77 1.97"/><path fill="#fff" d="M196.82 107.41c.85 3.8 1.18 4.59 1.18 2.88.07-1.25-.39-3.93-.98-5.9s-1.38-3.87-1.71-4.2c-.52-.46-.52-.26-.2.66.33.72 1.06 3.67 1.71 6.56"/><path fill="#fff" d="M196.03 112.32c-.46-2.95-.46-2.36-.26 2.95.13 3.61.53 7.28.85 8.19.53 1.25.59.52.33-2.95-.19-2.55-.59-6.22-.92-8.19"/><path fill="#fff" d="M161.83 132.32c-4.53-1.31-9.65-1.31-10.18 0-.53 1.57.07 1.84 4.53 1.9 3.28.07 4.92.52 8.01 2.23 2.17 1.18 4.33 2.1 4.79 2.1 2.96 0-2.55-4.86-7.15-6.23"/><path fill="#fff" d="M139.05 158.67c-.13-1.9-1.05-.79-3.28 3.87-1.12 2.36-2.76 5.24-3.61 6.42-1.77 2.29-3.28 5.18-4 7.54-.39 1.25.59.66 4.53-2.75 2.76-2.43 5.71-4.52 6.57-4.79 1.58-.39 1.58-.46.66-3.02-.53-1.44-.92-3.15-.85-3.74 0-.59.53.52 1.05 2.36.85 2.88 1.25 3.47 2.56 3.47 2.17 0 16.22-3.93 17-4.79.46-.46.39-.52-.2-.13-.46.26-2.23.26-3.87 0-4.07-.59-7.94-4.33-11.62-11.01-2.69-4.92-2.95-5.18-3.22-3.34l-.53 5.57c-.14 2.24-1.06 5.78-1.19 4.34"/><path fill="#fff" d="m113.77 209.67.53-2.62c1.97-10.29 3.68-13.37 11.88-21.5 4.46-4.46 6.24-6.69 6.24-7.8 0-2.56-.72-2.69-3.09-.39-2.04 1.97-2.17 1.97-2.17.66 0-.79.59-2.88 1.31-4.72.72-1.77 1.18-3.28 1.05-3.28-.59 0-15.23 15.27-15.56 16.26-.66 1.84-1.12 15.21-.66 19.47z"/><path fill="#fff" d="M139.84 184.11c2.04-2.69 3.48-4.92 3.22-4.85-.26 0-1.51.59-2.76 1.31-1.77.98-2.56 2.03-3.41 4.65-.66 1.84-1.05 3.47-.98 3.61.12.13 1.89-2.03 3.93-4.72"/><path fill="#fff" d="M107.74 310.43c-.72-7.67-1.38-6.95-4.2 4.46-.79 3.08-2.3 8.33-3.35 11.6-1.12 3.34-1.84 6.36-1.64 6.69.79 1.25 16.15 2.95 16.15 1.7 0-.33-.79-2.29-1.71-4.26-2.17-4.65-4.6-14.22-5.25-20.19"/><path fill="#fff" d="M172.53 88.99c-1.97-1.31-3.15-1.57-6.96-1.57-7.42.07-11.42 2.43-15.82 9.24-1.58 2.43-2.89 4.59-2.89 4.79 0 .72 1.58.39 2.63-.59 2.17-1.97 5.45-1.9 9.78 0 3.94 1.77 5.12 3.47 3.28 4.65-1.71 1.05 4.4 3.21 10.9 3.87 2.17.26 6.24 1.18 9.06 2.1 2.82.85 5.32 1.51 5.45 1.31.13-.13-.53-.92-1.44-1.84-1.38-1.31-2.56-1.64-7.02-1.9-4.2-.26-5.38-.52-5.38-1.31s.92-.98 4.66-.92c5.51 0 7.29.92 9.13 4.59 2.1 4.13 3.22 4.52 3.87 1.51.46-2.56-.66-9.9-1.97-12.65-2.56-5.51-4-6.69-9.65-8.19-2.9-.87-6.38-2.24-7.63-3.09"/><path fill="#000" d="M115 306h117v82H115z"/><path fill="#000" d="m172 255 32.5-47-24.5 88.5-8-6.5-1-17z"/><path fill="#000" d="M183.766 192.477 204.5 208l-77.617 109.275L105 301.459z"/></g><defs><clipPath id="a"><path fill="#fff" d="M0 0h359v388H0z"/></clipPath></defs></svg>